# xmcd CD database file
#
# Track frame offsets:
#	150
#	11748
#	23909
#	40771
#	51693
#	64358
#	76986
#	93466
#	105276
#	118926
#	134049
#	154286
#	172357
#	189324
#	208293
#	219324
#	233964
#	254857
#	268662
#	283288
#	302081
#
# Disc length: 4190 seconds
#
# Revision: 1
# Processed by: cddbd v1.5.1PL2 Copyright (c) Steve Scherf et al.
# Submitted via: CDex 1.51
#
DISCID=4f105c15
DTITLE=Madeleine Peyroux - KCRW Tracks 1996-2005 (1-18) plus
DYEAR=1900
DGENRE=Jazz
TTITLE0=04-Always A Use
TTITLE1=12-La Vie En Rose
TTITLE2=02-Gonna Sit Right Down And Write Myself A Letter
TTITLE3=06-Lovesick Blues
TTITLE4=08-Was I
TTITLE5=10-Getting Some Fun Out Of Life
TTITLE6=02-Walking After Midnight
TTITLE7=04-Always A Use
TTITLE8=08-Nobody Loves A Fat Girl
TTITLE9=10-La Vie En Rose
TTITLE10=02-Dance Me To The End Of Love
TTITLE11=04-Don't Wait Too Long
TTITLE12=06-You're Gonna Make Me Lonesome When You Go
TTITLE13=04-Between The Bars
TTITLE14=10-Don't Cry Baby
TTITLE15=08-J'Ai Deux Amours
TTITLE16=10-Careless Love
TTITLE17=12-I'll Look Around
TTITLE18=Life Is Fine (distortion EQ'd)
TTITLE19=Rock Island Line
TTITLE20=I Wish I Could Shimmy Like My Sister Kate
EXTD=
EXTT0=
EXTT1=
EXTT2=
EXTT3=
EXTT4=
EXTT5=
EXTT6=
EXTT7=
EXTT8=
EXTT9=
EXTT10=
EXTT11=
EXTT12=
EXTT13=
EXTT14=
EXTT15=
EXTT16=
EXTT17=
EXTT18=
EXTT19=
EXTT20=
PLAYORDER=
